<svg width="270" height="225" viewBox="0 0 270 225" fill="none" xmlns="http://www.w3.org/2000/svg">
<g id="bootstrap-icon" clip-path="url(#clip0_46_42)">
<path id="Vector" fill-rule="evenodd" clip-rule="evenodd" d="M56.0798 0.0269165C40.674 0.0269165 29.2744 14.1293 29.7849 29.4231C30.2748 44.1162 29.6383 63.1459 25.0578 78.6646C20.4609 94.227 12.6921 104.089 0 105.354V119.646C12.6921 120.914 20.4609 130.771 25.0573 146.335C29.6383 161.854 30.2743 180.884 29.7844 195.577C29.2739 210.868 40.6735 224.973 56.082 224.973H213.941C229.347 224.973 240.744 210.871 240.234 195.577C239.744 180.884 240.38 161.854 244.961 146.335C249.558 130.771 257.307 120.91 270 119.646V105.354C257.308 104.086 249.558 94.2292 244.961 78.6646C240.38 63.1481 239.744 44.1162 240.234 29.4231C240.744 14.1316 229.347 0.0269165 213.941 0.0269165H56.0777H56.0798ZM183.051 138.496C183.051 159.555 168.032 172.326 143.107 172.326H100.678C99.4641 172.326 98.3001 171.822 97.4419 170.925C96.5837 170.027 96.1015 168.81 96.1015 167.54V57.4603C96.1015 56.1909 96.5837 54.9735 97.4419 54.076C98.3001 53.1784 99.4641 52.6742 100.678 52.6742H142.865C163.648 52.6742 177.288 64.4481 177.288 82.5248C177.288 95.2125 168.112 106.571 156.423 108.561V109.223C172.336 111.048 183.051 122.575 183.051 138.496ZM138.48 67.846H114.288V103.585H134.664C150.416 103.585 159.101 96.9509 159.101 85.0937C159.1 73.9817 151.632 67.846 138.48 67.846ZM114.288 117.765V157.15H139.371C155.771 157.15 164.458 150.267 164.458 137.333C164.458 124.399 155.527 117.763 138.316 117.763H114.288V117.765Z" fill="#7952B3"/>
</g>
<defs>
<clipPath id="clip0_46_42">
<rect width="270" height="225" fill="white"/>
</clipPath>
</defs>
</svg>
