<svg width="168" height="236" viewBox="0 0 168 236" fill="none" xmlns="http://www.w3.org/2000/svg">
<g id="css-icon">
<path id="Vector" d="M83.532 235.68L15.2206 216.77L0 46.3369H167.27L152.033 216.746L83.532 235.68Z" fill="#264DE4"/>
<path id="Vector_2" d="M138.987 205.901L152.008 60.2807H83.6475V221.185L138.987 205.901Z" fill="#2965F1"/>
<path id="Vector_3" d="M34.9381 123.464L36.816 144.363H83.6803V123.464H34.9381ZM31.1659 81.1553L33.0685 102.055H83.672V81.1553H31.1248H31.1659ZM83.672 177.751H83.5814L60.2564 171.461L58.7656 154.788H37.7055L40.6376 187.608L83.532 199.521H83.6308L83.672 177.751Z" fill="#EBEBEB"/>
<path id="Vector_4" d="M39.3693 0H64.7287V10.5894H49.9693V21.1788H64.7287V31.7682H39.3693V0ZM69.8434 0H95.2028V9.20819H80.4105V11.0498H95.1699V32.2286H69.8022V22.56H84.5616V20.7184H69.8022V0H69.8434ZM100.318 0H125.677V9.20819H110.843V11.0498H125.603V32.2286H100.235V22.56H114.995V20.7184H100.235V0H100.318Z" fill="#F8F7F7"/>
<path id="Vector_5" d="M132.241 123.464L136.022 81.1553H83.5321V102.055H113.043L111.14 123.431H83.5321V144.33H109.32L106.849 171.461L83.5321 177.767V199.513L126.459 187.633L126.772 184.098L131.714 129.062L132.225 123.447L132.241 123.464Z" fill="white"/>
</g>
</svg>
