<svg width="155" height="258" viewBox="0 0 155 258" fill="none" xmlns="http://www.w3.org/2000/svg">
<g id="gulp-icon">
<path id="Vector" d="M119.585 250.212L122.887 208.912L132.006 197.229C132.006 197.229 111.251 203.601 76.5044 203.601C41.7568 203.601 21.3165 197.347 21.3165 197.347L31.5364 210.091L35.1517 250.212C35.1517 254.513 54.0523 258 77.3686 258C100.684 258 119.585 254.513 119.585 250.212ZM109.167 57.3455L116.099 36.7821L154.486 6.46748L144.369 0L103.728 32.2926L95.6795 56.8605C89.622 56.7082 83.5615 56.6325 77.5006 56.6335C34.6983 56.6335 0 60.2945 0 64.8095C0 69.325 34.6983 72.9856 77.5006 72.9856C120.302 72.9856 155 69.325 155 64.8095C155 61.4847 136.181 58.6229 109.167 57.3455Z" fill="#D34A47"/>
<path id="Vector_2" d="M106.596 68.7382C106.596 68.7382 105.06 68.9843 100.54 68.9981C96.0188 69.0114 92.8087 68.9772 91.53 68.1449C91.1862 67.9214 90.9981 67.4777 91 67.1772C91.0038 66.6053 91.5718 66.2684 92.2955 66.0574L92.98 66.8247C92.6823 66.8982 92.5122 66.985 92.5116 67.0776C92.5091 67.512 97.1342 67.8093 100.672 67.7772C104.21 67.7461 108.485 67.5378 108.489 67.1096C108.489 66.9801 108.166 66.8581 107.603 66.762L108.285 66C109.202 66.2034 110.002 66.5964 110 67.2765C109.991 68.4328 107.932 68.6086 106.596 68.7382Z" fill="white"/>
<path id="Vector_3" d="M154.705 6.82515C155.663 5.99303 154.209 3.86459 151.459 2.07182C148.706 0.279946 145.699 -0.498574 144.739 0.333543C143.781 1.16566 145.235 3.2941 147.987 5.08597C150.738 6.87829 153.747 7.65772 154.705 6.82515ZM118.31 148.849C117.407 142.315 137.311 132.853 132.203 132.55C121.207 133.023 115.734 142.242 110.201 151.898C108.174 155.437 101.236 170.527 96.6863 168.669C92.1375 166.812 102.584 154.403 105.512 147.034C102.133 148.897 89.7435 156.137 86.5505 149.357C81.417 152.636 70.4477 154.412 71.6852 145.799C68.9542 149.437 62.8248 154.517 55.4677 152.406C45.8059 149.635 61.0662 126.488 64.8607 127.656C68.6558 128.823 64.0949 134.096 62.9003 136.144C60.2732 140.65 57.2384 146.315 59.2658 147.474C62.7391 149.461 72.1907 139.959 72.4008 139.75C74.1686 137.993 79.2048 126.502 83.2638 127.822C87.3229 129.141 73.1395 144.313 78.4426 147.324C79.5122 147.932 83.8883 146.949 86.5505 144.783C88.2729 143.382 87.6804 140.278 93.422 129.98C99.1637 119.683 104.281 106.859 108.218 107.836C112.156 108.812 108.911 115.394 107.498 117.848C100.869 129.364 89.4065 148.39 94.8123 146.949C100.218 145.509 103.033 145.425 108.327 140.766C113.62 136.107 113.376 128.433 116.904 128.596C120.434 128.76 119.841 131.22 118.985 133.094C122.458 130.105 135.446 123.811 138.582 130.045C142.296 137.425 119.999 148.086 125.559 147.543C130.979 147.012 139.76 142.83 143.509 139.026L153.83 69.2476C153.83 69.2476 143.445 75.711 77.3779 75.711C11.3103 75.711 2 69.382 2 69.382L10.7861 133.074C15.4497 123.105 26.524 102.942 43.9802 103.618C51.9208 103.926 62.5211 115.426 53.4409 115.815C49.5974 115.98 49.2073 110.075 44.656 109.208C41.3718 108.582 36.7994 110.59 33.8443 112.766C27.9511 117.104 15.2763 134.218 16.951 142.751C19.0848 153.629 36.9099 138.971 39.926 134.619C42.05 131.553 43.485 122.471 48.1305 123.424C52.7765 124.377 47.7252 133.75 44.3577 142.037C40.5746 151.342 38.5859 161.158 33.8443 160.029C29.1022 158.901 36.8266 146.888 36.547 144.783C32.0899 147.876 23.8788 155.706 13.3739 151.83L18.8305 191.382C18.8305 191.382 33.3328 200 77.0197 200C120.707 200 135.746 191.517 135.746 191.517L142.521 145.706C136.978 149.766 119.434 156.975 118.31 148.849Z" fill="#D34A47"/>
</g>
</svg>
