<svg width="176" height="244" viewBox="0 0 176 244" fill="none" xmlns="http://www.w3.org/2000/svg">
<g id="html-icon" filter="url(#filter0_d_15_132)">
<path id="Vector" d="M171.27 45.98L156.03 216.68L87.53 235.68L19.22 216.68L4 45.98H171.27Z" fill="#E44D26"/>
<path id="Vector_2" d="M87.87 221.58L143.22 206.24L156.22 60.36H87.87V221.58Z" fill="#F16529"/>
<path id="Vector_3" d="M58.25 102.24H87.87V81.3H35.37L35.87 86.92L41.02 144.62H87.88V123.68H60.17L58.25 102.24ZM63.01 155.09H42.01L44.94 187.97L87.78 199.91H87.88V178.06H87.79L64.47 171.76L63.01 155.09Z" fill="#EBEBEB"/>
<path id="Vector_4" d="M19.81 0H30.45V10.51H40.18V0H50.82V31.84H40.18V21.18H30.45V31.84H19.81V0ZM64.81 10.56H55.44V0H84.82V10.56H75.45V31.84H64.82V10.56H64.81ZM89.49 0H100.59L107.42 11.19L114.24 0H125.34V31.84H114.74V16.06L107.42 27.38H107.24L99.91 16.06V31.84H89.49V0ZM130.63 0H141.27V21.31H156.27V31.83H130.66V0H130.63Z" fill="#FEFBFB"/>
<path id="Vector_5" d="M87.8 144.62H113.58L111.15 171.78L87.8 178.08V199.91L130.73 188.01L131.04 184.47L135.96 129.34L136.47 123.72H87.8V144.66V144.62ZM87.8 102.19V102.24H138.38L138.8 97.53L139.8 86.91L140.3 81.29H87.8V102.18V102.19Z" fill="white"/>
</g>
<defs>
<filter id="filter0_d_15_132" x="0" y="0" width="175.27" height="243.68" filterUnits="userSpaceOnUse" color-interpolation-filters="sRGB">
<feFlood flood-opacity="0" result="BackgroundImageFix"/>
<feColorMatrix in="SourceAlpha" type="matrix" values="0 0 0 0 0 0 0 0 0 0 0 0 0 0 0 0 0 0 127 0" result="hardAlpha"/>
<feOffset dy="4"/>
<feGaussianBlur stdDeviation="2"/>
<feComposite in2="hardAlpha" operator="out"/>
<feColorMatrix type="matrix" values="0 0 0 0 0 0 0 0 0 0 0 0 0 0 0 0 0 0 0.25 0"/>
<feBlend mode="normal" in2="BackgroundImageFix" result="effect1_dropShadow_15_132"/>
<feBlend mode="normal" in="SourceGraphic" in2="effect1_dropShadow_15_132" result="shape"/>
</filter>
</defs>
</svg>
