<svg width="167" height="175" viewBox="0 0 167 175" fill="none" xmlns="http://www.w3.org/2000/svg">
<g id="javascript-icon">
<g clip-path="url(#clip0_44_30)">
<path id="Vector" d="M0 0H167V175H0V0Z" fill="#F0DB4F"/>
<path id="Vector_2" d="M153.332 133.263C152.11 125.278 147.141 118.574 132.425 112.319C127.314 109.857 121.615 108.094 119.916 104.035C119.313 101.673 119.234 100.342 119.615 98.9116C120.71 94.2704 125.996 92.8232 130.187 94.154C132.886 95.1022 135.441 97.2815 136.981 100.758C144.188 95.8676 144.172 95.9007 149.205 92.5406C147.363 89.5463 146.379 88.1654 145.173 86.8847C140.839 81.811 134.933 79.1993 125.488 79.3989C123.853 79.6152 122.202 79.8479 120.567 80.0643C115.852 81.312 111.36 83.907 108.725 87.3837C100.819 96.7825 103.073 113.234 112.693 120.005C122.17 127.457 136.092 129.154 137.87 136.124C139.601 144.658 131.886 147.419 124.218 146.438C118.567 145.207 115.424 142.196 112.027 136.723C105.772 140.516 105.772 140.516 99.3429 144.392C100.867 147.885 102.47 149.465 105.026 152.493C117.122 165.352 147.395 164.72 152.824 145.257C153.046 144.591 154.507 140.133 153.332 133.263ZM90.7864 80.4301H75.1659C75.1659 94.5699 75.1025 108.61 75.1025 122.75C75.1025 131.749 75.547 140 74.1501 142.529C71.8641 147.502 65.9429 146.887 63.2443 145.922C60.498 144.508 59.101 142.495 57.4818 139.651C57.0373 138.836 56.704 138.203 56.5927 138.154C52.3543 140.865 48.1316 143.593 43.8931 146.305C46.0045 150.846 49.1158 154.788 53.1003 157.35C59.0532 161.093 67.054 162.241 75.42 160.228C80.865 158.564 85.5637 155.121 88.0242 149.881C91.5801 143.011 90.8182 134.693 90.7864 125.494C90.8658 110.49 90.7864 95.4848 90.7864 80.4301Z" fill="#323330"/>
</g>
</g>
<defs>
<clipPath id="clip0_44_30">
<rect width="167" height="175" rx="4" fill="white"/>
</clipPath>
</defs>
</svg>
