<svg width="612" height="638" viewBox="0 0 612 638" fill="none" xmlns="http://www.w3.org/2000/svg">
<g id="jest-icon">
<path id="Vector" d="M401.291 317.182C401.291 305.575 391.31 296.164 378.998 296.164C378.205 296.164 377.425 296.204 376.654 296.281L407.274 211.133H277.149L307.727 296.206C307.276 296.179 306.824 296.165 306.372 296.165C294.06 296.165 284.078 305.574 284.078 317.183C284.078 326.566 290.601 334.51 299.602 337.213C294.848 344.977 288.865 351.971 282.073 358.013C272.836 366.228 262.266 372.458 250.833 376.296C237.221 369.703 230.794 355.041 236.593 342.186C237.248 340.734 237.917 339.262 238.556 337.797C248.417 335.627 255.766 327.293 255.766 317.334C255.766 305.725 245.785 296.315 233.472 296.315C221.159 296.315 211.179 305.725 211.179 317.334C211.179 324.452 214.935 330.74 220.677 334.542C215.159 346.387 207.048 358.784 204.521 373.151C201.492 390.37 204.511 408.647 220.306 418.969C257.093 443.008 297.024 404.067 339.126 394.278C354.384 390.731 371.134 391.303 384.577 383.962C394.672 378.45 401.328 369.313 403.216 359.057C405.083 348.924 402.362 338.836 396.106 330.655C399.463 326.88 401.299 322.109 401.291 317.182Z" fill="#99425B"/>
<path id="Vector_2" d="M397.852 358.178C396.212 367.083 390.379 374.861 381.848 379.52C373.896 383.862 364.367 385.159 354.277 386.53C348.872 387.264 343.283 388.025 337.823 389.294C323.386 392.651 309.402 399.2 295.88 405.532C268.817 418.206 245.446 429.15 223.409 414.75C207.266 404.202 208.011 384.686 209.892 373.991C211.635 364.083 216.348 354.958 220.904 346.133C221.68 344.634 222.45 343.131 223.214 341.626C225.511 342.491 227.921 343.061 230.379 343.32C225.74 357.753 233.035 373.447 248.345 380.862L250.441 381.877L252.659 381.132C264.763 377.068 275.917 370.547 285.809 361.747C292.204 356.059 297.702 349.766 302.221 343.042C303.595 343.237 304.982 343.335 306.372 343.335C320.424 343.335 332.06 333.431 333.861 320.639C339.613 320.441 345.722 320.439 351.507 320.637C353.307 333.431 364.945 343.336 378.997 343.336C384.873 343.336 390.323 341.6 394.813 338.651C397.93 344.667 399.093 351.436 397.852 358.178ZM233.473 301.448C242.764 301.448 250.321 308.575 250.321 317.334C250.321 320.481 249.342 323.414 247.661 325.885C244.861 330.003 240.1 332.826 234.63 333.178C234.248 333.202 233.861 333.22 233.473 333.22C231.402 333.22 229.419 332.864 227.585 332.217C223.892 330.908 220.799 328.424 218.84 325.195C217.385 322.802 216.621 320.092 216.623 317.334C216.623 308.575 224.182 301.448 233.473 301.448ZM289.524 317.183C289.524 309.225 295.764 302.617 303.872 301.474C304.688 301.358 305.523 301.298 306.372 301.298C311.774 301.298 316.583 303.71 319.667 307.448C320.439 308.38 321.099 309.391 321.634 310.461C322.681 312.564 323.223 314.86 323.221 317.183C323.221 318.453 323.058 319.688 322.759 320.872C321.116 327.353 315.255 332.307 308.072 332.989C307.514 333.041 306.947 333.069 306.372 333.069C303.132 333.071 299.96 332.187 297.241 330.523C292.603 327.69 289.524 322.77 289.524 317.183ZM359.845 298.293C356.179 301.592 353.54 305.775 352.215 310.388C345.865 310.167 339.507 310.167 333.157 310.388C331.731 305.402 328.776 301.003 324.8 297.662L342.235 264.424L359.845 298.293ZM284.743 216.269H399.679L372.532 291.754C371.364 292.018 370.216 292.354 369.094 292.758L342.278 241.181L315.385 292.45C314.212 292.071 313.014 291.767 311.799 291.539L284.743 216.269ZM395.846 317.184C395.846 318.776 395.594 320.314 395.129 321.766C394.028 325.185 391.741 328.156 388.635 330.203C385.812 332.071 382.446 333.072 378.997 333.069C371.218 333.069 364.655 328.071 362.725 321.302C362.342 319.959 362.148 318.575 362.148 317.184C362.148 315.013 362.613 312.942 363.454 311.055C363.887 310.09 364.421 309.167 365.047 308.301C368.079 304.082 373.196 301.299 378.997 301.299C379.529 301.299 380.054 301.324 380.574 301.371C389.128 302.122 395.846 308.925 395.846 317.184ZM406.736 317.184C406.736 304.416 396.979 293.763 384.127 291.487L414.869 206H269.555L300.345 291.66C287.939 294.263 278.634 304.714 278.634 317.183C278.634 326.546 283.882 334.77 291.747 339.391C287.964 344.705 283.478 349.706 278.337 354.279C270.184 361.531 261.101 367.031 251.308 370.649C241.445 364.808 237.276 353.791 241.605 344.195L241.945 343.443L242.581 342.031C253.415 338.468 261.211 328.747 261.211 317.334C261.211 302.913 248.768 291.181 233.473 291.181C218.178 291.181 205.733 302.913 205.733 317.334C205.733 324.613 208.907 331.204 214.014 335.951C213.061 337.853 212.094 339.75 211.113 341.639C206.443 350.681 201.151 360.93 199.149 372.311C195.174 394.914 201.587 412.983 217.205 423.188C226.683 429.381 236.308 431.817 245.993 431.817C264.23 431.817 282.68 423.178 300.724 414.727C313.719 408.642 327.157 402.35 340.43 399.263C345.369 398.115 350.451 397.423 355.831 396.692C366.501 395.241 377.533 393.74 387.306 388.405C398.634 382.218 406.388 371.841 408.581 359.935C410.463 349.714 408.198 339.477 402.674 330.794C405.336 326.698 406.742 321.987 406.736 317.183V317.184Z" fill="white"/>
</g>
</svg>
