<svg width="354" height="357" viewBox="0 0 354 357" fill="none" xmlns="http://www.w3.org/2000/svg">
<g id="pug-icon">
<path id="Vector" d="M224.828 251.165C193.634 264.278 159.365 264.278 128.171 251.165C125.298 249.985 123 246.117 123 242.773V234.185C123 230.841 125.298 229.201 128.172 230.381C159.366 243.494 193.635 243.494 224.829 230.381C227.701 229.201 230 230.841 230 234.185V242.773C229.943 246.117 227.644 249.985 224.828 251.165Z" fill="#ED1C24"/>
<path id="Vector_2" d="M224.828 240.017C193.625 258.661 159.375 258.661 128.171 240.017C125.298 238.34 123 232.841 123 228.079V215.94C123 211.178 125.298 208.831 128.172 210.575C159.375 229.219 193.625 229.219 224.829 210.575C227.701 208.899 230 211.18 230 215.94V228.079C229.943 232.84 227.644 238.34 224.828 240.017Z" fill="#C1272D"/>
<g id="Group">
<path id="Vector_3" d="M176.478 259.95C178.948 259.95 180.951 257.672 180.951 254.861C180.951 252.05 178.948 249.771 176.478 249.771C174.008 249.771 172.005 252.05 172.005 254.861C172.005 257.672 174.008 259.95 176.478 259.95Z" fill="#C1272D"/>
<path id="Vector_4" d="M176.478 258.496C178.596 258.496 180.312 256.543 180.312 254.134C180.312 251.724 178.596 249.771 176.478 249.771C174.361 249.771 172.644 251.724 172.644 254.134C172.644 256.543 174.361 258.496 176.478 258.496Z" fill="#FF931E"/>
<path id="Vector_5" d="M177.582 257.174C178.321 257.174 178.919 256.493 178.919 255.653C178.919 254.813 178.321 254.132 177.582 254.132C176.844 254.132 176.246 254.813 176.246 255.653C176.246 256.493 176.844 257.174 177.582 257.174Z" fill="#FFB81E"/>
<path id="Vector_6" d="M176.478 285C183.087 285 188.444 278.904 188.444 271.384C188.444 263.865 183.087 257.769 176.478 257.769C169.869 257.769 164.512 263.865 164.512 271.384C164.512 278.904 169.869 285 176.478 285Z" fill="#FF931E"/>
<path id="Vector_7" d="M176.478 283.745C182.413 283.745 187.225 278.27 187.225 271.517C187.225 264.763 182.413 259.288 176.478 259.288C170.543 259.288 165.731 264.763 165.731 271.517C165.731 278.27 170.543 283.745 176.478 283.745Z" fill="#FFB81E"/>
<path id="Vector_8" d="M179.616 267.617C180.255 268.279 180.603 269.203 180.603 270.525C180.603 271.847 180.253 272.773 179.616 273.434C178.918 274.029 177.931 274.36 176.537 274.36H175.316V277.333H173.226V266.691H176.537C177.931 266.691 178.977 266.957 179.616 267.617ZM178.106 271.781C178.338 271.451 178.454 270.988 178.454 270.393C178.454 269.798 178.279 269.335 177.99 269.073C177.64 268.807 177.176 268.675 176.479 268.675H175.316V272.244H176.712C177.408 272.244 177.872 272.112 178.106 271.781Z" fill="#FF931E"/>
</g>
<path id="Vector_9" d="M273.861 160.552C276.779 205.611 233.516 246.066 176.999 246C120.541 246.065 77.2203 205.61 80.1393 160.552C83.0582 115.361 126.556 78.065 177.117 78C227.736 78.065 270.883 115.361 273.861 160.552Z" fill="#F7BD89"/>
<path id="Vector_10" d="M176.586 71C123.277 71 73.7759 113.443 83.1485 178.067C85.0238 184.028 88.1288 199.521 102.95 213.227C107.401 217.333 115.075 220.775 118.707 217.994C128.022 210.843 111.502 190.317 130.366 171.38H129.955C140.206 162.574 154.735 155.555 176.469 155.555C198.202 155.555 212.731 162.574 222.982 171.38H222.572C241.436 190.317 224.975 210.843 234.23 217.994C237.862 220.775 245.595 217.333 249.988 213.227C264.81 199.521 267.973 184.026 269.848 178.067C279.221 113.377 229.894 71 176.586 71Z" fill="#FBD5A0"/>
<path id="Vector_11" d="M222.526 178.496C213.617 166.049 196.732 154 177.111 154H176.878C157.198 154 140.314 166.048 131.463 178.496C122.264 191.208 125.583 196.637 125.583 208.819C125.583 252.914 139.148 240.07 148.29 245.365C157.605 250.529 167.037 248.677 176.936 248.677H177.111C187.009 248.677 196.441 250.53 205.757 245.3C214.839 240.003 228.464 252.981 228.464 208.886C228.405 196.77 231.725 191.208 222.526 178.496Z" fill="black"/>
<g id="left-eye">
<path id="Vector_12" d="M111.649 177.327C120.6 177.327 127.856 169.071 127.856 158.886C127.856 148.702 120.6 140.445 111.649 140.445C102.698 140.445 95.4423 148.702 95.4423 158.886C95.4423 169.071 102.698 177.327 111.649 177.327Z" fill="#F7BD89"/>
<path id="Vector_13" d="M113.101 174.22C122.052 174.22 129.308 165.964 129.308 155.779C129.308 145.594 122.052 137.338 113.101 137.338C104.15 137.338 96.8938 145.594 96.8938 155.779C96.8938 165.964 104.15 174.22 113.101 174.22Z" fill="black"/>
<path id="left-eye-ball" d="M117.225 152.276C119.535 152.276 121.408 150.145 121.408 147.517C121.408 144.889 119.535 142.759 117.225 142.759C114.916 142.759 113.043 144.889 113.043 147.517C113.043 150.145 114.916 152.276 117.225 152.276Z" fill="white"/>
</g>
<g id="right-eye">
<path id="Vector_14" d="M241.773 177.327C250.723 177.327 257.98 169.071 257.98 158.886C257.98 148.702 250.723 140.445 241.773 140.445C232.822 140.445 225.566 148.702 225.566 158.886C225.566 169.071 232.822 177.327 241.773 177.327Z" fill="#F7BD89"/>
<path id="Vector_15" d="M240.843 174.22C249.794 174.22 257.05 165.964 257.05 155.779C257.05 145.594 249.794 137.338 240.843 137.338C231.892 137.338 224.636 145.594 224.636 155.779C224.636 165.964 231.892 174.22 240.843 174.22Z" fill="black"/>
<path id="right-eye-ball" d="M244.968 152.276C247.277 152.276 249.15 150.145 249.15 147.517C249.15 144.889 247.277 142.759 244.968 142.759C242.658 142.759 240.786 144.889 240.786 147.517C240.786 150.145 242.658 152.276 244.968 152.276Z" fill="white"/>
</g>
<path id="Vector_16" d="M142.333 87.7237C142.333 87.7237 87.2817 98.5485 85.0677 173.523C85.0089 174.653 83.96 175.384 83.0864 174.786L81.3392 173.591L80 153.933L82.5032 113.822L105.457 94.4965L126.08 85L142.333 87.7237ZM210.667 87.7237C210.667 87.7237 265.718 98.5485 267.932 173.523C267.991 174.653 269.039 175.384 269.914 174.786L271.661 173.591L273 153.933L270.496 113.822L247.543 94.4965L226.92 85L210.667 87.7237Z" fill="#F7BD89"/>
<path id="Vector_17" d="M175.515 221.776V183.582H177.91V221.685C181.439 222.168 186.025 224.556 190.417 226.096C194.966 227.975 199.342 228.713 197.615 228.981C191.626 229.249 185.062 226.632 176.999 226.768C168.881 226.634 162.316 229.249 156.385 228.981C154.658 228.645 159.034 227.907 163.583 226.096C167.747 224.637 172.041 222.414 175.515 221.776ZM191.741 170.707C193.641 175.602 187.077 183.582 176.654 183.582C166.232 183.582 159.669 175.601 161.568 170.707C163.411 165.677 170.032 164.068 176.654 164C183.276 164.068 189.899 165.677 191.741 170.707Z" fill="#4D4D4D"/>
<path id="dog-ears" d="M142.97 88.1136C142.97 88.1136 78.3893 98.1961 83.9591 170.541C84.2496 174.208 71.078 154.894 60.8658 149.001C50.6536 143.108 51.0014 124.057 51.0014 124.057C51.0014 124.057 50.8269 90.8635 92.0832 81.0426C133.28 71.2863 142.97 88.1136 142.97 88.1136ZM211.032 88.1136C211.032 88.1136 275.612 98.1961 270.042 170.541C269.752 174.208 282.923 154.894 293.135 149.001C303.348 143.108 302.999 124.057 302.999 124.057C302.999 124.057 303.173 90.8635 261.918 81.0426C220.721 71.2863 211.032 88.1136 211.032 88.1136Z" fill="black"/>
<path id="Vector_18" d="M176.999 141C157.314 141 137.401 162.182 141.554 159.816C149.236 155.392 153.673 147.604 177 147.604C200.326 147.604 204.707 155.392 212.446 159.816C216.598 162.182 196.684 141 176.999 141Z" fill="#F7BD89"/>
<path id="Vector_19" d="M176.617 130.414C161.021 130.414 145.304 147.802 148.565 145.847C154.674 142.208 162.503 135.805 176.618 135.805C190.734 135.805 198.563 142.208 204.671 145.847C207.933 147.802 192.215 130.414 176.617 130.414ZM176.5 74C159.299 74 141.863 85.1889 145.481 83.9074C152.243 81.5486 160.901 77.4376 176.5 77.4376C192.097 77.4376 200.757 81.55 207.518 83.9074C211.137 85.1889 193.758 74 176.5 74Z" fill="#F7BD89"/>
<path id="Vector_20" d="M180.928 167.389C181.351 168.389 179.874 170 177.5 170C175.127 170 173.65 168.389 174.072 167.389C174.494 166.389 175.971 166.056 177.5 166C178.977 166 180.506 166.334 180.928 167.389Z" fill="#808080"/>
</g>
</svg>
