<svg width="253" height="269" viewBox="0 0 253 269" fill="none" xmlns="http://www.w3.org/2000/svg">
<g id="react-icon">
<g id="Group">
<path id="Vector" d="M253 134.524C253 118.885 232.011 104.064 199.832 94.8736C207.258 64.2695 203.957 39.9211 189.415 32.1257C186.063 30.2972 182.143 29.431 177.863 29.431V40.1617C180.235 40.1617 182.144 40.5947 183.742 41.4128C190.756 45.1661 193.798 59.4576 191.426 77.8393C190.859 82.3625 189.93 87.1263 188.796 91.9864C178.688 89.6767 167.652 87.8962 156.049 86.7414C149.087 77.8393 141.868 69.7552 134.596 62.6816C151.408 48.1014 167.188 40.1135 177.915 40.1135V29.3829C163.733 29.3829 145.168 38.8143 126.397 55.175C107.626 38.9106 89.0605 29.5754 74.8789 29.5754V40.306C85.5538 40.306 101.386 48.2457 118.197 62.7297C110.978 69.8033 103.758 77.8393 96.8991 86.7414C85.2444 87.8962 74.2085 89.6767 64.1009 92.0345C62.9148 87.2226 62.0381 82.555 61.4193 78.0798C58.9955 59.6982 61.9865 45.4067 68.9484 41.6052C70.4955 40.7391 72.5067 40.3541 74.8789 40.3541V29.6235C70.5471 29.6235 66.6278 30.4896 63.2242 32.3182C48.7332 40.1135 45.4843 64.4139 52.9619 94.9217C20.8856 104.161 0 118.933 0 134.524C0 150.163 20.9888 164.984 53.1682 174.175C45.7422 204.779 49.0426 229.127 63.5852 236.922C66.9372 238.751 70.8565 239.617 75.1883 239.617C89.37 239.617 107.935 230.186 126.706 213.825C145.478 230.089 164.043 239.425 178.224 239.425C182.556 239.425 186.475 238.558 189.879 236.73C204.37 228.935 207.619 204.634 200.141 174.126C232.114 164.936 253 150.115 253 134.524ZM185.856 102.428C183.948 108.636 181.576 115.036 178.895 121.436C176.78 117.586 174.563 113.736 172.139 109.887C169.767 106.037 167.24 102.284 164.713 98.6269C172.036 99.6374 179.101 100.889 185.856 102.428ZM162.238 153.676C158.215 160.172 154.09 166.331 149.809 172.057C142.126 172.683 134.339 173.02 126.5 173.02C118.713 173.02 110.926 172.683 103.294 172.105C99.0135 166.379 94.8363 160.268 90.8139 153.82C86.8946 147.516 83.3363 141.116 80.0874 134.668C83.2848 128.22 86.8946 121.772 90.7623 115.469C94.7848 108.973 98.9103 102.813 103.191 97.0871C110.874 96.4615 118.661 96.1247 126.5 96.1247C134.287 96.1247 142.074 96.4615 149.706 97.0389C153.987 102.765 158.164 108.876 162.186 115.324C166.105 121.628 169.664 128.028 172.913 134.476C169.664 140.924 166.105 147.372 162.238 153.676ZM178.895 147.42C181.679 153.868 184.052 160.316 186.011 166.572C179.256 168.111 172.139 169.411 164.765 170.421C167.291 166.716 169.818 162.915 172.191 159.017C174.563 155.167 176.78 151.27 178.895 147.42ZM126.603 198.764C121.807 194.144 117.011 188.995 112.267 183.365C116.908 183.558 121.652 183.702 126.448 183.702C131.296 183.702 136.092 183.606 140.785 183.365C136.144 188.995 131.348 194.144 126.603 198.764ZM88.2354 170.421C80.9126 169.411 73.8475 168.16 67.0919 166.62C69 160.412 71.3722 154.012 74.0538 147.613C76.1682 151.462 78.3857 155.312 80.8094 159.161C83.2332 163.011 85.7085 166.764 88.2354 170.421ZM126.345 70.2845C131.141 74.904 135.937 80.0528 140.682 85.6827C136.04 85.4903 131.296 85.3459 126.5 85.3459C121.652 85.3459 116.857 85.4421 112.164 85.6827C116.805 80.0528 121.601 74.904 126.345 70.2845ZM88.1839 98.6269C85.657 102.332 83.13 106.134 80.7578 110.031C78.3856 113.881 76.1682 117.73 74.0538 121.58C71.2691 115.132 68.8969 108.684 66.9372 102.428C73.6928 100.937 80.8094 99.6374 88.1839 98.6269ZM41.5135 158.873C23.2579 151.606 11.4484 142.079 11.4484 134.524C11.4484 126.969 23.2579 117.394 41.5135 110.176C45.9484 108.395 50.796 106.807 55.7982 105.316C58.7377 114.747 62.6054 124.563 67.4013 134.62C62.657 144.629 58.8408 154.397 55.9529 163.781C50.8475 162.289 46 160.653 41.5135 158.873ZM69.2579 227.635C62.2444 223.882 59.2018 209.591 61.574 191.209C62.1413 186.686 63.0695 181.922 64.204 177.062C74.3117 179.371 85.3475 181.152 96.9507 182.307C103.913 191.209 111.132 199.293 118.404 206.367C101.592 220.947 85.8117 228.935 75.0852 228.935C72.7646 228.886 70.8049 228.453 69.2579 227.635ZM191.581 190.968C194.004 209.35 191.013 223.641 184.052 227.443C182.504 228.309 180.493 228.694 178.121 228.694C167.446 228.694 151.614 220.754 134.803 206.27C142.022 199.197 149.242 191.161 156.101 182.259C167.756 181.104 178.791 179.323 188.899 176.965C190.085 181.826 191.013 186.493 191.581 190.968ZM211.435 158.873C207 160.653 202.152 162.241 197.15 163.733C194.211 154.301 190.343 144.485 185.547 134.428C190.291 124.419 194.108 114.651 196.996 105.267C202.101 106.759 206.948 108.395 211.487 110.176C229.742 117.442 241.552 126.969 241.552 134.524C241.5 142.079 229.691 151.655 211.435 158.873Z" fill="#61DAFB"/>
<path id="Vector_2" d="M126.448 156.515C139.464 156.515 150.016 146.669 150.016 134.524C150.016 122.379 139.464 112.533 126.448 112.533C113.433 112.533 102.881 122.379 102.881 134.524C102.881 146.669 113.433 156.515 126.448 156.515Z" fill="#61DAFB"/>
</g>
</g>
</svg>
