<svg width="214" height="170" viewBox="0 0 214 170" fill="none" xmlns="http://www.w3.org/2000/svg">
<g id="sass-icon" clip-path="url(#clip0_44_40)">
<path id="Vector" d="M184.157 97.6615C176.675 97.7062 170.197 99.6094 164.763 102.443C162.757 98.2374 160.751 94.5625 160.417 91.8182C160.041 88.6307 159.581 86.6823 160.041 82.8754C160.5 79.0677 162.59 73.6667 162.59 73.224C162.548 72.8255 162.13 70.8776 157.825 70.8333C153.52 70.7891 149.8 71.7187 149.382 72.9141C148.964 74.1094 148.128 76.8542 147.585 79.6875C146.832 83.849 138.975 98.5911 134.502 106.339C133.039 103.328 131.786 100.672 131.534 98.5464C131.159 95.3594 130.698 93.411 131.159 89.6042C131.618 85.7964 133.708 80.3958 133.708 79.9531C133.666 79.5547 133.248 77.6068 128.944 77.5625C124.638 77.5182 120.919 78.4479 120.501 79.6432C120.083 80.8385 119.623 83.6719 118.704 86.4167C117.825 89.1615 107.376 113.776 104.659 120.195C103.28 123.471 102.068 126.083 101.19 127.854C100.313 129.625 101.148 127.987 101.065 128.164C100.313 129.669 99.8945 130.51 99.8945 130.51V130.555C99.3094 131.662 98.6824 132.724 98.3894 132.724C98.1805 132.724 97.7625 129.758 98.473 125.685C100.02 117.141 103.781 103.816 103.74 103.329C103.74 103.107 104.45 100.76 101.315 99.5655C98.264 98.3702 97.1777 100.362 96.9265 100.362C96.6758 100.362 96.4668 101.071 96.4668 101.071C96.4668 101.071 99.8523 86.0634 89.9883 86.0634C83.8023 86.0634 75.2758 93.191 71.0543 99.6988C68.3793 101.248 62.6949 104.524 56.6762 108.022C54.3773 109.35 51.9949 110.767 49.7379 112.05L49.2785 111.518C37.3246 98.0156 15.2141 88.4531 16.1336 70.3021C16.468 63.7057 18.6414 46.3073 58.5996 25.2344C91.3266 7.96875 117.533 12.7057 122.089 23.2422C128.567 38.2943 108.087 66.2734 74.0645 70.3021C61.1075 71.8516 54.2941 66.5391 52.5809 64.5469C50.7836 62.4661 50.5328 62.3776 49.8641 62.776C48.7774 63.3958 49.4461 65.2552 49.8641 66.362C50.8672 69.151 55.0469 74.1094 62.1524 76.5885C68.3797 78.7578 83.5942 79.9531 101.985 72.4271C122.591 63.9714 138.682 40.5078 133.959 20.8958C129.153 0.929691 97.8887 -5.62239 68.3383 5.48959C50.7414 12.1302 31.682 22.4896 17.9727 36.0807C1.67188 52.1953 -0.919527 66.2734 0.167192 72.1172C3.97113 92.9687 31.0969 106.56 41.9641 116.609C41.4207 116.919 40.9191 117.229 40.4594 117.495C35.0258 120.328 14.3363 131.794 9.15352 143.924C3.30196 157.648 10.0731 167.521 14.5871 168.849C28.5473 172.966 42.8418 165.573 50.5742 153.398C58.2644 141.224 57.3453 125.419 53.7926 118.203L53.6668 117.938L57.9301 115.281C60.6891 113.555 63.4059 111.961 65.7879 110.588C64.4508 114.44 63.489 119 62.9879 125.64C62.4027 133.432 65.4121 143.526 69.3828 147.51C71.1383 149.236 73.2281 149.281 74.5238 149.281C79.1215 149.281 81.2113 145.252 83.5102 140.427C86.3524 134.539 88.8602 127.721 88.8602 127.721C88.8602 127.721 85.7254 146.182 94.2938 146.182C97.4285 146.182 100.563 141.888 101.984 139.674V139.718C101.984 139.718 102.068 139.586 102.235 139.276C102.411 139.001 102.578 138.721 102.737 138.435V138.346C103.991 136.044 106.791 130.776 110.971 122.055C116.362 110.81 121.545 96.7318 121.545 96.7318C121.545 96.7318 122.047 100.185 123.593 105.852C124.512 109.217 126.519 112.891 128.065 116.477C126.811 118.336 126.059 119.399 126.059 119.399L126.101 119.443C125.098 120.86 123.969 122.365 122.799 123.87C118.536 129.271 113.437 135.425 112.768 137.196C111.974 139.276 112.141 140.826 113.688 142.066C114.816 142.951 116.822 143.128 118.954 142.951C122.799 142.685 125.474 141.668 126.812 141.047C128.902 140.25 131.284 139.055 133.583 137.284C137.763 134.009 140.312 129.36 140.061 123.162C139.936 119.753 138.891 116.389 137.595 113.201C137.972 112.626 138.348 112.05 138.724 111.431C145.328 101.204 150.427 89.9592 150.427 89.9592C150.427 89.9592 150.929 93.4123 152.475 99.079C153.269 101.957 154.857 105.1 156.279 108.199C150.093 113.556 146.205 119.754 144.868 123.827C142.402 131.353 144.325 134.762 147.961 135.559C149.591 135.913 151.932 135.116 153.687 134.319C155.86 133.566 158.493 132.282 160.918 130.379C165.098 127.103 169.11 122.543 168.901 116.389C168.776 113.556 168.065 110.767 167.104 108.111C172.37 105.809 179.183 104.48 187.835 105.587C206.435 107.889 210.113 120.197 209.403 125.332C208.692 130.468 204.805 133.301 203.509 134.186C202.213 135.027 201.795 135.338 201.921 135.957C202.088 136.887 202.673 136.842 203.802 136.666C205.348 136.4 213.582 132.46 213.916 122.987C214.418 110.81 203.509 97.5291 184.157 97.6615ZM40.7102 148.883C34.566 156.01 25.9141 158.711 22.2359 156.409C18.2652 153.974 19.8113 143.482 27.377 135.911C31.9746 131.307 37.9516 127.057 41.8805 124.445C42.7582 123.87 44.0957 123.029 45.684 122.01C45.9348 121.834 46.102 121.745 46.102 121.745C46.3945 121.568 46.7289 121.346 47.0633 121.125C49.8637 131.927 47.1887 141.401 40.7102 148.883ZM85.6418 116.521C83.5102 122.055 78.9961 136.266 76.2793 135.469C73.9383 134.805 72.5176 124.047 75.8191 113.422C77.491 108.065 81.0437 101.69 83.1336 99.2105C86.5195 95.2261 90.1972 93.898 91.1172 95.536C92.2039 97.6615 86.9793 113.068 85.6418 116.521ZM122.716 135.292C121.796 135.779 120.96 136.133 120.584 135.868C120.291 135.691 120.96 135.026 120.96 135.026C120.96 135.026 125.599 129.758 127.438 127.323C128.483 125.907 129.737 124.269 131.075 122.409V122.941C131.075 129.315 125.307 133.565 122.716 135.292ZM151.304 128.385C150.636 127.854 150.72 126.216 152.976 121.081C153.854 119.044 155.86 115.635 159.329 112.404C159.747 113.732 159.998 115.015 159.956 116.211C159.915 124.18 154.565 127.146 151.304 128.385Z" fill="#CF649A"/>
</g>
<defs>
<clipPath id="clip0_44_40">
<rect width="214" height="170" fill="white"/>
</clipPath>
</defs>
</svg>
